<?xml version="1.0" encoding="utf-8"?>
<!-- Generator: Adobe Illustrator 23.0.3, SVG Export Plug-In . SVG Version: 6.00 Build 0)  -->
<svg version="1.1" id="Layer_1" xmlns="http://www.w3.org/2000/svg" xmlns:xlink="http://www.w3.org/1999/xlink" x="0px" y="0px"
	 viewBox="0 0 109.56 107.72" style="enable-background:new 0 0 109.56 107.72;" xml:space="preserve">
<style type="text/css">
	.st0{fill:#FFFFFF;}
</style>
<path class="st0" d="M54.52,4.7c13.68,0,26.05,5.54,35.01,14.51c8.97,8.96,14.5,21.33,14.5,35.01c0,13.68-5.54,26.05-14.5,35.01
	c-8.97,8.96-21.33,14.5-35.01,14.5c-13.68,0-26.05-5.54-35.01-14.5C10.54,80.26,5,67.9,5,54.22c0-13.68,5.54-26.05,14.51-35.01
	C28.47,10.24,40.84,4.7,54.52,4.7L54.52,4.7z M86.79,21.95C78.54,13.67,67.14,8.57,54.52,8.57c-12.61,0-24.02,5.1-32.27,13.38
	C13.97,30.2,8.87,41.6,8.87,54.22c0,12.61,5.1,24.02,13.38,32.27c8.25,8.28,19.66,13.38,32.27,13.38c12.61,0,24.02-5.1,32.27-13.38
	c8.28-8.25,13.38-19.66,13.38-32.27C100.17,41.6,95.07,30.2,86.79,21.95L86.79,21.95z"/>
<path class="st0" d="M67.03,42.07c0.54,0,1.07,0.02,1.6,0.05C66.02,34,57.08,28.01,46.45,28.01c-12.68,0-22.95,8.52-22.95,19.02
	c0,6.21,3.6,11.73,9.16,15.2l-1.7,6.48l8.14-3.67c1.8,0.5,3.7,0.83,5.68,0.95c-0.4-1.44-0.62-2.93-0.62-4.47
	C44.15,50.8,54.41,42.07,67.03,42.07z M53.79,37.4c1.95,0,3.53,1.58,3.53,3.52c0,1.95-1.58,3.53-3.53,3.53
	c-1.95,0-3.53-1.58-3.53-3.53C50.26,38.98,51.84,37.4,53.79,37.4z M38.78,44.45c-1.95,0-3.53-1.58-3.53-3.53
	c0-1.95,1.58-3.53,3.52-3.53c1.95,0,3.53,1.58,3.53,3.52C42.31,42.87,40.73,44.45,38.78,44.45z"/>
<path class="st0" d="M66.9,45.15c-11,0-19.92,7.39-19.92,16.51c0,9.12,8.92,16.51,19.92,16.51c2.75,0,5.37-0.46,7.75-1.3l6.72,3.41
	l-1.48-6.12c4.24-3.03,6.93-7.51,6.93-12.51C86.83,52.54,77.91,45.15,66.9,45.15z M60.97,59.16c-1.85,0-3.35-1.5-3.35-3.35
	c0-1.85,1.5-3.36,3.35-3.36c1.85,0,3.36,1.5,3.36,3.36C64.33,57.66,62.83,59.16,60.97,59.16z M73.92,59.16
	c-1.85,0-3.35-1.5-3.35-3.35c0-1.85,1.5-3.36,3.35-3.36c1.85,0,3.36,1.5,3.36,3.36C77.27,57.66,75.77,59.16,73.92,59.16z"/>
</svg>
